<svg width="291" height="56" viewBox="0 0 291 56" fill="none" xmlns="http://www.w3.org/2000/svg">
<path d="M93.3049 41.6528V21.3398H99.4721V23.3827C100.59 22.0722 102.479 20.9158 105.061 20.9158C109.224 20.9158 111.845 23.8067 111.845 28.2393V41.6528H105.678V30.0123C105.678 27.9695 104.83 26.4662 102.825 26.4662C101.129 26.4662 99.4721 27.6611 99.4721 30.0509V41.6528H93.3049Z" fill="#036EDB"/>
<path d="M120.402 13.9778V41.6528H114.235V13.9778H120.402Z" fill="#036EDB"/>
<path d="M131.553 41.6528V21.3398H137.72V23.3827C138.838 22.0722 140.726 20.9158 143.309 20.9158C147.472 20.9158 150.093 23.8067 150.093 28.2393V41.6528H143.926V30.0123C143.926 27.9695 143.078 26.4662 141.073 26.4662C139.377 26.4662 137.72 27.6611 137.72 30.0509V41.6528H131.553Z" fill="#036EDB"/>
<path d="M161.656 42.0768C155.528 42.0768 151.365 37.7983 151.365 31.477C151.365 25.4641 155.682 20.9158 161.541 20.9158C167.708 20.9158 171.061 25.4641 171.061 31.2072V32.8261H157.301C157.725 35.6013 159.382 37.1816 161.734 37.1816C163.661 37.1816 165.164 36.2565 165.742 34.4835L170.907 36.1409C169.404 40.0339 165.704 42.0768 161.656 42.0768ZM161.464 25.6954C159.575 25.6954 158.11 26.8131 157.494 29.0487H164.971C164.933 27.2371 163.738 25.6954 161.464 25.6954Z" fill="#036EDB"/>
<path fill-rule="evenodd" clip-rule="evenodd" d="M129.061 41.6528V21.3398H122.894V41.6528H129.061Z" fill="#036EDB"/>
<path d="M179.96 14.3505V28.9974L173.793 34.7406L179.587 29.3443L177.802 27.8026L179.96 28.9974V33.0446V36.1282V42.0255H173.793V14.3505H179.96Z" fill="#EC3534"/>
<path d="M195.652 42.0255V14.3505H201.819V23.7554C202.937 22.4449 204.825 21.2885 207.408 21.2885C211.57 21.2885 214.192 24.1794 214.192 28.612V42.0255H208.024V30.385C208.024 28.3422 207.176 26.839 205.172 26.839C203.476 26.839 201.819 28.0338 201.819 30.4236V42.0255H195.652Z" fill="#EC3534"/>
<path d="M222.325 42.4109C218.239 42.4109 215.31 39.9441 215.31 36.3594C215.31 32.1581 218.856 30.4621 223.134 29.8454L227.682 29.0745V28.7276C227.682 27.2244 226.873 26.2608 224.869 26.2608C223.096 26.2608 222.171 27.0317 221.785 28.6891L215.888 27.8026C216.774 24.2179 219.973 21.2885 225.138 21.2885C230.458 21.2885 233.734 23.7168 233.734 28.4578V36.2824C233.734 37.3231 234.119 37.6314 235.314 37.4772V42.0255C231.768 42.6037 229.378 41.9484 228.338 40.2139C226.989 41.6015 224.984 42.4109 222.325 42.4109ZM227.682 34.7406V33.0446L224.136 33.6999C222.517 33.9697 221.323 34.5093 221.323 35.9355C221.323 37.2074 222.286 37.9012 223.751 37.9012C225.794 37.9012 227.682 36.822 227.682 34.7406Z" fill="#EC3534"/>
<path d="M248.174 42.4495C245.746 42.4495 243.819 41.4473 242.662 40.0212V42.0255H236.495V14.3505H242.662V23.7554C243.819 22.2907 245.746 21.2885 248.174 21.2885C253.763 21.2885 256.924 26.0681 256.924 31.8883C256.924 37.67 253.763 42.4495 248.174 42.4495ZM242.624 31.3487V32.4279C242.624 35.4729 244.281 37.2074 246.594 37.2074C249.292 37.2074 250.718 35.0104 250.718 31.8883C250.718 28.7662 249.292 26.5691 246.594 26.5691C244.281 26.5691 242.624 28.2651 242.624 31.3487Z" fill="#EC3534"/>
<path d="M264.072 42.4109C259.986 42.4109 257.057 39.9441 257.057 36.3594C257.057 32.1581 260.603 30.4621 264.881 29.8454L269.429 29.0745V28.7276C269.429 27.2244 268.62 26.2608 266.616 26.2608C264.843 26.2608 263.918 27.0317 263.532 28.6891L257.635 27.8026C258.521 24.2179 261.721 21.2885 266.885 21.2885C272.205 21.2885 275.481 23.7168 275.481 28.4578V36.2824C275.481 37.3231 275.866 37.6314 277.061 37.4772V42.0255C273.515 42.6037 271.125 41.9484 270.085 40.2139C268.736 41.6015 266.731 42.4109 264.072 42.4109ZM269.429 34.7406V33.0446L265.883 33.6999C264.264 33.9697 263.07 34.5093 263.07 35.9355C263.07 37.2074 264.033 37.9012 265.498 37.9012C267.541 37.9012 269.429 36.822 269.429 34.7406Z" fill="#EC3534"/>
<path d="M291 21.674V27.6098C290.345 27.4942 289.883 27.4557 289.189 27.4557C286.529 27.4557 284.409 29.1131 284.409 32.0425V42.0255H278.242V21.7125H284.409V24.3721C285.334 22.7532 287.3 21.5969 289.651 21.5969C290.23 21.5969 290.615 21.6354 291 21.674Z" fill="#EC3534"/>
<circle cx="125.85" cy="16.4913" r="3.21204" fill="#036EDB"/>
<path d="M81.4111 21.3632C87.151 21.3632 91.8045 26.016 91.8047 31.7558C91.8047 37.4957 87.1511 42.1493 81.4111 42.1493C75.6713 42.1492 71.0186 37.4956 71.0186 31.7558C71.0187 26.0161 75.6714 21.3634 81.4111 21.3632ZM81.4111 27.1376C78.8602 27.1376 76.7922 29.2049 76.792 31.7558C76.792 34.3068 78.8601 36.3749 81.4111 36.3749C83.9621 36.3749 86.0303 34.3068 86.0303 31.7558C86.0301 29.205 83.962 27.1377 81.4111 27.1376Z" fill="#036EDB"/>
<path d="M192.402 21.3632H186.464C185.942 21.3632 185.456 21.6341 185.172 22.0831L180.218 29.588C179.34 30.9789 179.35 32.77 180.245 34.15L185.927 41.4452C186.212 41.8846 186.693 42.149 187.209 42.149H193.199C193.548 42.149 193.899 41.5853 193.713 41.2829L187.209 32.6222C186.892 32.1088 186.818 31.7474 187.134 31.2327L192.778 22.0587C192.963 21.7563 192.751 21.3632 192.402 21.3632Z" fill="#EC3534"/>
<path d="M19.9824 0.5H39.252C49.4553 0.500016 57.9886 8.29471 58.5361 18.4619C58.7297 22.0568 58.8782 25.6744 58.9189 28.7988C58.9549 31.5586 58.8708 34.5742 58.7236 37.5537C58.2337 47.4729 49.7932 54.9287 39.8184 54.9287H20.1562C10.1724 54.9287 1.7289 47.459 0.985352 37.5303C0.751631 34.4093 0.571361 31.3476 0.513672 28.7812C0.444968 25.7244 0.636582 21.7444 0.932617 17.7168C1.65677 7.8648 10.0697 0.5 19.9824 0.5Z" fill="#F5F8FF" stroke="#EAF0FF"/>
<path d="M23.3997 14.0521C15.7704 14.0521 9.58594 20.2445 9.58594 27.8835C9.58594 35.5225 15.7704 41.7148 23.3997 41.7148C31.029 41.7148 37.2135 35.5225 37.2135 27.8835C37.2135 20.2445 31.029 14.0521 23.3997 14.0521ZM23.3997 33.0588C20.545 33.0588 18.2309 30.7418 18.2309 27.8835C18.2309 25.0251 20.545 22.7081 23.3997 22.7081C26.2544 22.7081 28.5685 25.0251 28.5685 27.8835C28.5685 30.7418 26.2544 33.0588 23.3997 33.0588Z" fill="#036EDB"/>
<path d="M50.5624 14.1121H37.0407C36.3332 14.1121 35.6751 14.471 35.2902 15.0661L29.3612 24.2455C28.1709 26.0885 28.1854 28.4618 29.3969 30.2903L36.3136 40.722C36.7001 41.3043 37.3514 41.6546 38.0504 41.6546H50.0771C50.5505 41.6546 50.8374 41.1321 50.5846 40.7314L43.4278 29.4191C42.9978 28.7388 42.9961 27.8719 43.4252 27.1899L51.0716 15.0337C51.3227 14.633 51.0358 14.1121 50.5624 14.1121Z" fill="#EC3534"/>
</svg>
