<svg width="288" height="60" viewBox="0 0 288 60" fill="none" xmlns="http://www.w3.org/2000/svg">
<path d="M97.7561 56.3232V36.7759H103.691V38.7418C104.766 37.4806 106.584 36.3679 109.069 36.3679C113.075 36.3679 115.597 39.1498 115.597 43.4153V56.3232H109.663V45.1215C109.663 43.1557 108.847 41.7091 106.918 41.7091C105.286 41.7091 103.691 42.8589 103.691 45.1586V56.3232H97.7561Z" fill="white"/>
<path d="M123.832 29.6914V56.3232H117.897V29.6914H123.832Z" fill="white"/>
<path d="M134.562 56.3232V36.7759H140.497V38.7418C141.573 37.4806 143.39 36.3679 145.875 36.3679C149.881 36.3679 152.403 39.1498 152.403 43.4153V56.3232H146.469V45.1215C146.469 43.1557 145.653 41.7091 143.724 41.7091C142.092 41.7091 140.497 42.8589 140.497 45.1586V56.3232H134.562Z" fill="white"/>
<path d="M163.531 56.7312C157.634 56.7312 153.628 52.614 153.628 46.531C153.628 40.7447 157.782 36.3679 163.42 36.3679C169.355 36.3679 172.582 40.7447 172.582 46.2714V47.8292H159.34C159.748 50.4998 161.343 52.0206 163.605 52.0206C165.46 52.0206 166.907 51.1304 167.463 49.4242L172.433 51.0191C170.987 54.7654 167.426 56.7312 163.531 56.7312ZM163.346 40.9673C161.528 40.9673 160.119 42.0429 159.525 44.1942H166.721C166.684 42.4509 165.534 40.9673 163.346 40.9673Z" fill="white"/>
<path fill-rule="evenodd" clip-rule="evenodd" d="M132.164 56.3232V36.7759H126.23V56.3232H132.164Z" fill="white"/>
<path d="M181.145 30.0501V44.1449L175.21 49.6716L180.786 44.4787L179.068 42.9951L181.145 44.1449V48.0395V51.0069V56.6819H175.21V30.0501H181.145Z" fill="white"/>
<path d="M196.245 56.6819V30.0501H202.18V39.1004C203.256 37.8393 205.073 36.7266 207.558 36.7266C211.564 36.7266 214.086 39.5084 214.086 43.774V56.6819H208.152V45.4802C208.152 43.5143 207.336 42.0678 205.407 42.0678C203.775 42.0678 202.18 43.2176 202.18 45.5173V56.6819H196.245Z" fill="white"/>
<path d="M221.913 57.0528C217.981 57.0528 215.162 54.6789 215.162 51.2294C215.162 47.1864 218.575 45.5544 222.692 44.9609L227.069 44.2191V43.8853C227.069 42.4387 226.29 41.5114 224.361 41.5114C222.655 41.5114 221.765 42.2532 221.394 43.8482L215.719 42.9951C216.572 39.5455 219.65 36.7266 224.621 36.7266C229.739 36.7266 232.892 39.0633 232.892 43.6256V51.1552C232.892 52.1567 233.263 52.4534 234.413 52.3051V56.6819C231 57.2383 228.701 56.6077 227.699 54.9386C226.401 56.2739 224.472 57.0528 221.913 57.0528ZM227.069 49.6716V48.0395L223.656 48.6701C222.098 48.9297 220.949 49.449 220.949 50.8214C220.949 52.0454 221.876 52.7131 223.285 52.7131C225.251 52.7131 227.069 51.6745 227.069 49.6716Z" fill="white"/>
<path d="M246.788 57.0899C244.451 57.0899 242.597 56.1255 241.484 54.7531V56.6819H235.549V30.0501H241.484V39.1004C242.597 37.6909 244.451 36.7266 246.788 36.7266C252.166 36.7266 255.208 41.3259 255.208 46.9268C255.208 52.4905 252.166 57.0899 246.788 57.0899ZM241.447 46.4075V47.4461C241.447 50.3763 243.042 52.0454 245.267 52.0454C247.864 52.0454 249.236 49.9312 249.236 46.9268C249.236 43.9223 247.864 41.8081 245.267 41.8081C243.042 41.8081 241.447 43.4402 241.447 46.4075Z" fill="white"/>
<path d="M262.086 57.0528C258.155 57.0528 255.336 54.6789 255.336 51.2294C255.336 47.1864 258.748 45.5544 262.865 44.9609L267.242 44.2191V43.8853C267.242 42.4387 266.463 41.5114 264.534 41.5114C262.828 41.5114 261.938 42.2532 261.567 43.8482L255.892 42.9951C256.745 39.5455 259.824 36.7266 264.794 36.7266C269.913 36.7266 273.065 39.0633 273.065 43.6256V51.1552C273.065 52.1567 273.436 52.4534 274.586 52.3051V56.6819C271.174 57.2383 268.874 56.6077 267.873 54.9386C266.574 56.2739 264.646 57.0528 262.086 57.0528ZM267.242 49.6716V48.0395L263.83 48.6701C262.272 48.9297 261.122 49.449 261.122 50.8214C261.122 52.0454 262.049 52.7131 263.459 52.7131C265.425 52.7131 267.242 51.6745 267.242 49.6716Z" fill="white"/>
<path d="M288 37.0975V42.8096C287.37 42.6983 286.924 42.6612 286.257 42.6612C283.697 42.6612 281.657 44.2562 281.657 47.0751V56.6819H275.723V37.1346H281.657V39.6939C282.548 38.136 284.439 37.0233 286.702 37.0233C287.258 37.0233 287.629 37.0604 288 37.0975Z" fill="white"/>
<circle cx="129.074" cy="32.1102" r="3.09097" fill="white"/>
<path d="M86.3105 36.7984C91.8341 36.7984 96.3114 41.2759 96.3115 46.7994C96.3115 52.323 91.8341 56.8004 86.3105 56.8004C80.787 56.8003 76.3096 52.3229 76.3096 46.7994C76.3097 41.2759 80.7871 36.7985 86.3105 36.7984ZM86.3105 42.3551C83.8558 42.3551 81.8654 44.3446 81.8652 46.7994C81.8652 49.2543 83.8557 51.2447 86.3105 51.2447C88.7654 51.2447 90.7559 49.2543 90.7559 46.7994C90.7557 44.3447 88.7653 42.3551 86.3105 42.3551Z" fill="white"/>
<path d="M193.118 36.7984H187.403C186.901 36.7984 186.434 37.0591 186.16 37.4912L181.393 44.7132C180.548 46.0517 180.558 47.7752 181.419 49.1032L186.887 56.1234C187.162 56.5463 187.624 56.8007 188.121 56.8007H193.885C194.221 56.8007 194.559 56.2583 194.379 55.9673L188.121 47.633C187.815 47.139 187.744 46.7912 188.049 46.2959L193.48 37.4677C193.658 37.1767 193.454 36.7984 193.118 36.7984Z" fill="white"/>
<path d="M21.4766 0.537109H42.1875C53.1539 0.537166 62.3246 8.91517 62.9131 19.8428C63.1211 23.7064 63.2814 27.5942 63.3252 30.9521C63.3639 33.9183 63.2734 37.1599 63.1152 40.3623C62.5886 51.0233 53.5167 59.0361 42.7959 59.0361H21.6631C10.9327 59.036 1.85774 51.0081 1.05859 40.3369C0.807397 36.9825 0.614736 33.6918 0.552734 30.9336C0.478889 27.648 0.683757 23.37 1.00195 19.041C1.78035 8.45233 10.8226 0.537109 21.4766 0.537109Z" fill="#F5F8FF" stroke="#EAF0FF" stroke-width="1.07479"/>
<path d="M25.1498 15.103C16.95 15.103 10.303 21.7585 10.303 29.9687C10.303 38.179 16.95 44.8345 25.1498 44.8345C33.3497 44.8345 39.9967 38.179 39.9967 29.9687C39.9967 21.7585 33.3497 15.103 25.1498 15.103ZM25.1498 35.5311C22.0816 35.5311 19.5945 33.0408 19.5945 29.9687C19.5945 26.8966 22.0816 24.4064 25.1498 24.4064C28.218 24.4064 30.7051 26.8966 30.7051 29.9687C30.7051 33.0408 28.218 35.5311 25.1498 35.5311Z" fill="#036EDB"/>
<path d="M54.3436 15.1675H39.8107C39.0502 15.1675 38.3429 15.5533 37.9293 16.1928L31.5568 26.0587C30.2776 28.0395 30.2931 30.5903 31.5953 32.5556L39.0292 43.7674C39.4446 44.3932 40.1447 44.7698 40.8959 44.7698H53.8221C54.3308 44.7698 54.6392 44.2081 54.3674 43.7775L46.6754 31.6192C46.2133 30.8881 46.2115 29.9563 46.6727 29.2233L54.8908 16.158C55.1608 15.7273 54.8524 15.1675 54.3436 15.1675Z" fill="#EC3534"/>
<path d="M88.1052 9.29184C87.0811 7.76886 85.737 7.00737 84.0728 7.00737C82.5914 7.00737 81.3844 7.58314 80.4518 8.73466H82.1251V10.5734H79.958V22.6643H77.5166V10.5734H76.3096V8.73466H77.6812C78.2847 7.52742 79.1533 6.57091 80.2872 5.86514C81.421 5.15937 82.6555 4.80648 83.9905 4.80648C85.3803 4.80648 86.6468 5.16866 87.7898 5.893C88.9328 6.61734 89.8609 7.75029 90.5741 9.29184H88.1052ZM94.4968 10.5734V22.6922H92.0554V14.613H86.377C85.6821 14.613 85.1197 14.8451 84.69 15.3095C84.2602 15.7738 84.0453 16.3588 84.0453 17.0646C84.0453 17.7704 84.2602 18.3508 84.69 18.8058C85.1197 19.2609 85.6821 19.4884 86.377 19.4884C87.072 19.4884 87.6435 19.2516 88.0915 18.778C88.5396 18.3043 88.7636 17.7147 88.7636 17.0089C88.7636 16.1174 88.0778 15.263 86.7062 14.4458H90.1626C90.693 15.3373 90.9581 16.2195 90.9581 17.0925C90.9581 18.3554 90.4964 19.4419 89.5728 20.352C88.6493 21.2621 87.5657 21.7171 86.3222 21.7171C85.0969 21.7171 84.0408 21.2574 83.1538 20.3381C82.2668 19.4187 81.8234 18.3369 81.8234 17.0925C81.8234 15.7924 82.2623 14.6966 83.1401 13.8051C84.0179 12.9136 85.0969 12.4678 86.377 12.4678H92.0554V10.5734H80.8632V8.73466H96.7188V10.5734H94.4968ZM106.814 10.5734V22.6922H104.372V20.9371C103.531 21.5314 102.571 21.8286 101.492 21.8286C100.084 21.8286 98.8676 21.3271 97.8435 20.3242C96.8194 19.3212 96.3073 18.114 96.3073 16.7024C96.3073 15.2723 96.8148 14.0187 97.8298 12.9414C98.8448 11.8642 100.056 11.3256 101.464 11.3256C102.452 11.3256 103.44 11.6692 104.427 12.3564V16.396C103.933 15.4116 103.458 14.7244 103.001 14.3344C102.598 14.0001 102.105 13.8329 101.519 13.8329C100.733 13.8329 100.075 14.0976 99.5443 14.6269C99.0139 15.1562 98.7488 15.8202 98.7488 16.6189C98.7488 17.3989 99.0139 18.0536 99.5443 18.5829C100.075 19.1123 100.724 19.3769 101.492 19.3769C102.662 19.3769 103.54 18.7547 104.125 17.5104C104.29 17.1575 104.372 16.9532 104.372 16.8975V10.5734H95.5667V8.73466H109.145V10.5734H106.814ZM111.614 10.5734V22.7201H109.173V10.5734H108.048V8.73466H113.754V10.5734H111.614ZM112.958 5.47511C112.593 4.80648 112.135 4.47217 111.587 4.47217C111.111 4.47217 110.723 4.65326 110.421 5.01543C110.119 5.3776 109.968 5.80013 109.968 6.28303C109.968 6.76593 110.119 7.18846 110.421 7.55063C110.723 7.9128 111.184 8.09389 111.806 8.09389V9.26398H109.145C108.377 8.40963 107.993 7.41598 107.993 6.28303C107.993 5.18723 108.327 4.2493 108.995 3.46923C109.662 2.68917 110.535 2.29914 111.614 2.29914C113.315 2.29914 114.458 3.3578 115.043 5.47511H112.958ZM125.111 10.5734V22.6643H122.505V20.7142C121.682 21.2528 120.804 21.5221 119.871 21.5221C118.445 21.5221 117.219 20.9974 116.195 19.9481C115.171 18.8987 114.659 17.6497 114.659 16.201C114.659 15.2723 114.906 14.3901 115.4 13.5543H113.726V11.3813H122.34V13.5543H118.993C118.591 13.5543 118.143 13.8886 117.649 14.5573C117.265 15.0773 117.073 15.6252 117.073 16.201C117.073 16.9625 117.352 17.6264 117.91 18.1929C118.468 18.7594 119.121 19.0426 119.871 19.0426C120.402 19.0426 120.973 18.8244 121.586 18.3879C122.198 17.9515 122.505 17.4732 122.505 16.9532V10.5734H112.602V8.73466H127.388V10.5734H125.111ZM139.65 10.5734V22.6922H137.208V14.613H131.53C130.835 14.613 130.272 14.8451 129.843 15.3095C129.413 15.7738 129.198 16.3588 129.198 17.0646C129.198 17.7704 129.413 18.3508 129.843 18.8058C130.272 19.2609 130.835 19.4884 131.53 19.4884C132.225 19.4884 132.796 19.2516 133.244 18.778C133.692 18.3043 133.916 17.7147 133.916 17.0089C133.916 16.1174 133.23 15.263 131.859 14.4458H135.315C135.846 15.3373 136.111 16.2195 136.111 17.0925C136.111 18.3554 135.649 19.4419 134.726 20.352C133.802 21.2621 132.718 21.7171 131.475 21.7171C130.25 21.7171 129.193 21.2574 128.306 20.3381C127.42 19.4187 126.976 18.3369 126.976 17.0925C126.976 15.7924 127.415 14.6966 128.293 13.8051C129.171 12.9136 130.25 12.4678 131.53 12.4678H137.208V10.5734H126.016V8.73466H141.871V10.5734H139.65Z" fill="white" fill-opacity="0.8"/>
</svg>
