<svg width="20" height="19" viewBox="0 0 20 19" fill="none" xmlns="http://www.w3.org/2000/svg">
<path d="M9.00771 0.387261C9.55953 -0.129087 10.4405 -0.129087 10.9923 0.387261L11.8918 1.22891C12.229 1.54448 12.7076 1.67916 13.1694 1.58843L14.4008 1.34643C15.1563 1.19797 15.8974 1.6544 16.0704 2.3747L16.3522 3.54879C16.4579 3.989 16.7846 4.35029 17.2242 4.51319L18.3967 4.94768C19.116 5.21424 19.482 5.98219 19.2211 6.67775L18.7959 7.81151C18.6365 8.23659 18.7075 8.70979 18.9854 9.07461L19.7267 10.0476C20.1815 10.6446 20.0561 11.4802 19.4443 11.9302L18.447 12.6637C18.0731 12.9387 17.8658 13.3735 17.8939 13.8245L17.9685 15.0271C18.0143 15.7649 17.4375 16.403 16.6689 16.4645L15.4162 16.5648C14.9465 16.6024 14.5268 16.8609 14.296 17.2547L13.6804 18.3051C13.3027 18.9496 12.4575 19.1874 11.7762 18.841L10.6658 18.2763C10.2494 18.0645 9.75059 18.0645 9.33423 18.2763L8.22377 18.841C7.54252 19.1874 6.69727 18.9496 6.31959 18.3051L5.70398 17.2547C5.47316 16.8609 5.05352 16.6024 4.58382 16.5648L3.33108 16.4645C2.56254 16.403 1.98565 15.7649 2.03147 15.0271L2.10615 13.8245C2.13415 13.3735 1.92693 12.9387 1.55301 12.6637L0.555725 11.9302C-0.0561031 11.4802 -0.181472 10.6446 0.273292 10.0476L1.01456 9.07461C1.29249 8.70978 1.36348 8.23659 1.20406 7.81151L0.778858 6.67775C0.518001 5.98219 0.883952 5.21424 1.60328 4.94768L2.77579 4.51319C3.2154 4.35029 3.54206 3.98899 3.64775 3.54879L3.92964 2.3747C4.10257 1.6544 4.84366 1.19797 5.59916 1.34643L6.83065 1.58843C7.29238 1.67916 7.771 1.54448 8.10824 1.22891L9.00771 0.387261Z" fill="#FF641A"/>
<path d="M5.59916 10.0746L7 9L10.6298 12.5908L9.28487 13.8797L5.59916 10.0746Z" fill="white"/>
<path d="M14.4008 5.94768L16.0704 7.39985L9.24687 13.8444L7.90198 12.5555L14.4008 5.94768Z" fill="white"/>
</svg>
